<?xml version="1.0" encoding="UTF-8" standalone="no"?>
<!-- Generator: Adobe Illustrator 16.0.0, SVG Export Plug-In . SVG Version: 6.00 Build 0)  -->

<svg
   xmlns:dc="http://purl.org/dc/elements/1.1/"
   xmlns:cc="http://creativecommons.org/ns#"
   xmlns:rdf="http://www.w3.org/1999/02/22-rdf-syntax-ns#"
   xmlns:svg="http://www.w3.org/2000/svg"
   xmlns="http://www.w3.org/2000/svg"
   xmlns:sodipodi="http://sodipodi.sourceforge.net/DTD/sodipodi-0.dtd"
   xmlns:inkscape="http://www.inkscape.org/namespaces/inkscape"
   version="1.1"
   id="Calque_1"
   x="0px"
   y="0px"
   width="128"
   height="128"
   viewBox="0 0 128 128"
   enable-background="new 0 0 434.89 148.59"
   xml:space="preserve"
   inkscape:version="0.91 r13725"
   sodipodi:docname="tempLogo.svg"><metadata
     id="metadata29"><rdf:RDF><cc:Work
         rdf:about=""><dc:format>image/svg+xml</dc:format><dc:type
           rdf:resource="http://purl.org/dc/dcmitype/StillImage" /><dc:title></dc:title></cc:Work></rdf:RDF></metadata><defs
     id="defs27" /><sodipodi:namedview
     pagecolor="#ffffff"
     bordercolor="#666666"
     borderopacity="1"
     objecttolerance="10"
     gridtolerance="10"
     guidetolerance="10"
     inkscape:pageopacity="0"
     inkscape:pageshadow="2"
     inkscape:window-width="1280"
     inkscape:window-height="724"
     id="namedview25"
     showgrid="false"
     inkscape:zoom="1.0899308"
     inkscape:cx="156.61348"
     inkscape:cy="147.69416"
     inkscape:window-x="0"
     inkscape:window-y="24"
     inkscape:window-maximized="1"
     inkscape:current-layer="Calque_1" /><path
     d="m 29.25952,44.543586 c 0,-15.171 12.039,-27.086 27.589,-27.086 15.422,0 27.332,11.916 27.332,27.086 0,15.173 -11.909,26.957 -27.332,26.957 -15.551,0 -27.589,-11.784 -27.589,-26.957 z m 46.019,0 c 0,-11.159 -7.398,-19.44 -18.431,-19.44 -11.161,0 -18.685,8.281 -18.685,19.44 0,11.161 7.524,19.436 18.685,19.436 11.033,-10e-4 18.431,-8.275 18.431,-19.436 z"
     id="path7"
     inkscape:connector-curvature="0"
     style="fill:#70b52e" /><path
     d="m 201.224,1.1750111 c 0,0.181 0,0.329 0,0.329 0,0 0,-0.148 0,-0.329 0,-0.17800004 0,-0.32500004 0,-0.32500004 0,0 0,0.147 0,0.32500004 z"
     id="path19"
     inkscape:connector-curvature="0"
     style="fill:#575756" /><path
     d="m 109.23152,88.508586 -52.479,-44.03 1.751,3.271 -0.174,-0.167 -1.608,-3.093 6.682,68.187984 3.192,-1.684 16.786,-8.848 7.743,14.666 6.178,-3.262 -7.729,-14.671988 16.474,-8.687996 3.184,-1.681 z m -43.618,-26.899 -0.005,-0.029 0.219,-0.123 0.012,0.035 c -0.026,-0.296 30.789,25.541 30.789,25.541 l -13.473,7.320996 -0.188,0.101 -13.663,6.974988 c -10e-4,-0.001 -3.906,-40.013984 -3.691,-39.820984 z"
     id="path21"
     inkscape:connector-curvature="0"
     style="fill:#575756" /></svg>